<?xml version="1.0" encoding="UTF-8"?>
<!DOCTYPE svg PUBLIC "-//W3C//DTD SVG 1.1//EN" "http://www.w3.org/Graphics/SVG/1.1/DTD/svg11.dtd">
<svg xmlns="http://www.w3.org/2000/svg" version="1.1" width="225px" height="225px" style="shape-rendering:geometricPrecision; text-rendering:geometricPrecision; image-rendering:optimizeQuality; fill-rule:evenodd; clip-rule:evenodd" xmlns:xlink="http://www.w3.org/1999/xlink">
<g><path style="opacity:1" fill="#fffefd" d="M -0.5,-0.5 C 74.5,-0.5 149.5,-0.5 224.5,-0.5C 224.5,74.5 224.5,149.5 224.5,224.5C 149.5,224.5 74.5,224.5 -0.5,224.5C -0.5,149.5 -0.5,74.5 -0.5,-0.5 Z"/></g>
<g><path style="opacity:1" fill="#f86f01" d="M 83.5,5.5 C 83.5,21.1667 83.5,36.8333 83.5,52.5C 83.5,52.8333 83.5,53.1667 83.5,53.5C 82.8333,54.5 82.1667,55.5 81.5,56.5C 67.2374,74.8408 53.5707,93.6741 40.5,113C 53.296,131.619 66.6293,149.786 80.5,167.5C 81.5,168.833 82.5,170.167 83.5,171.5C 83.5,171.833 83.5,172.167 83.5,172.5C 69.1667,172.5 54.8333,172.5 40.5,172.5C 31.5919,153.645 22.7586,134.645 14,115.5C 13.3333,113.5 13.3333,111.5 14,109.5C 29.8333,75.1667 45.6667,40.8333 61.5,6.5C 68.8032,5.50274 76.1365,5.16941 83.5,5.5 Z"/></g>
<g><path style="opacity:1" fill="#f7ae30" d="M 83.5,5.5 C 109.169,5.33336 134.835,5.50003 160.5,6C 167.921,21.3391 174.921,36.8391 181.5,52.5C 167.167,52.5 152.833,52.5 138.5,52.5C 120.167,52.5 101.833,52.5 83.5,52.5C 83.5,36.8333 83.5,21.1667 83.5,5.5 Z"/></g>
<g><path style="opacity:1" fill="#f87001" d="M 138.5,53.5 C 138.5,53.1667 138.5,52.8333 138.5,52.5C 152.833,52.5 167.167,52.5 181.5,52.5C 190.921,72.5161 200.255,92.6828 209.5,113C 193.304,148.56 176.97,184.06 160.5,219.5C 153.197,220.497 145.863,220.831 138.5,220.5C 138.5,204.5 138.5,188.5 138.5,172.5C 139.167,172.5 139.5,172.167 139.5,171.5C 154.08,152.419 168.08,132.919 181.5,113C 168.08,93.0806 154.08,73.5806 139.5,54.5C 139.5,53.8333 139.167,53.5 138.5,53.5 Z"/></g>
<g><path style="opacity:1" fill="#fefefd" d="M 83.5,52.5 C 101.833,52.5 120.167,52.5 138.5,52.5C 138.5,52.8333 138.5,53.1667 138.5,53.5C 138.5,93.1667 138.5,132.833 138.5,172.5C 120.167,172.5 101.833,172.5 83.5,172.5C 83.5,172.167 83.5,171.833 83.5,171.5C 83.5,132.167 83.5,92.8333 83.5,53.5C 83.5,53.1667 83.5,52.8333 83.5,52.5 Z"/></g>
<g><path style="opacity:1" fill="#fbe373" d="M 138.5,53.5 C 139.167,53.5 139.5,53.8333 139.5,54.5C 148.496,73.8146 157.496,93.1479 166.5,112.5C 157.765,132.303 148.765,151.969 139.5,171.5C 139.5,172.167 139.167,172.5 138.5,172.5C 138.5,132.833 138.5,93.1667 138.5,53.5 Z"/></g>
<g><path style="opacity:1" fill="#fbe373" d="M 83.5,53.5 C 83.5,92.8333 83.5,132.167 83.5,171.5C 82.5,170.167 81.5,168.833 80.5,167.5C 72.5891,149.176 64.2558,131.009 55.5,113C 64.2612,94.2191 72.9279,75.3858 81.5,56.5C 82.1667,55.5 82.8333,54.5 83.5,53.5 Z"/></g>
<g><path style="opacity:1" fill="#c75a02" d="M 139.5,54.5 C 154.08,73.5806 168.08,93.0806 181.5,113C 168.08,132.919 154.08,152.419 139.5,171.5C 148.765,151.969 157.765,132.303 166.5,112.5C 157.496,93.1479 148.496,73.8146 139.5,54.5 Z"/></g>
<g><path style="opacity:1" fill="#c75a01" d="M 81.5,56.5 C 72.9279,75.3858 64.2612,94.2191 55.5,113C 64.2558,131.009 72.5891,149.176 80.5,167.5C 66.6293,149.786 53.296,131.619 40.5,113C 53.5707,93.6741 67.2374,74.8408 81.5,56.5 Z"/></g>
<g><path style="opacity:1" fill="#f7af32" d="M 40.5,172.5 C 54.8333,172.5 69.1667,172.5 83.5,172.5C 101.833,172.5 120.167,172.5 138.5,172.5C 138.5,188.5 138.5,204.5 138.5,220.5C 112.831,220.667 87.1645,220.5 61.5,220C 54.3591,204.219 47.3591,188.386 40.5,172.5 Z"/></g>
</svg>
