<?xml version="1.0" standalone="no"?>
<!DOCTYPE svg PUBLIC "-//W3C//DTD SVG 20010904//EN"
 "http://www.w3.org/TR/2001/REC-SVG-20010904/DTD/svg10.dtd">
<svg version="1.0" xmlns="http://www.w3.org/2000/svg"
 width="225.000000pt" height="225.000000pt" viewBox="0 0 225.000000 225.000000"
 preserveAspectRatio="xMidYMid meet">

<g transform="translate(0.000000,225.000000) scale(0.100000,-0.100000)"
fill="#000000" stroke="none">
<path d="M627 2183 c-3 -5 29 -7 71 -5 135 4 150 9 40 10 -59 1 -109 -1 -111
-5z"/>
<path d="M456 1825 c-9 -26 -7 -32 5 -12 6 10 9 21 6 23 -2 3 -7 -2 -11 -11z"/>
<path d="M813 1680 c-3 -11 -9 -20 -14 -20 -5 0 -9 -6 -9 -14 0 -8 -4 -16 -8
-18 -8 -3 -87 -107 -284 -376 -55 -76 -95 -139 -91 -145 4 -7 19 -28 33 -47
15 -19 87 -116 160 -215 73 -99 137 -181 142 -183 4 -2 8 -10 8 -18 0 -8 4
-14 8 -14 4 0 21 -20 36 -45 16 -25 30 -45 32 -45 1 0 -50 111 -115 248 -64
136 -125 266 -135 289 l-19 43 124 261 c143 300 151 319 143 319 -3 0 -8 -9
-11 -20z"/>
<path d="M1412 1675 c7 -16 37 -79 67 -140 89 -183 191 -408 191 -420 0 -6
-45 -108 -101 -226 -56 -118 -116 -246 -135 -286 -33 -69 -46 -109 -22 -68 7
11 96 135 199 276 103 142 195 268 204 282 16 25 16 26 -186 304 -111 153
-208 285 -216 293 -13 13 -13 11 -1 -15z"/>
<path d="M1876 655 c-9 -26 -7 -32 5 -12 6 10 9 21 6 23 -2 3 -7 -2 -11 -11z"/>
<path d="M360 625 c0 -5 5 -17 10 -25 5 -8 10 -10 10 -5 0 6 -5 17 -10 25 -5
8 -10 11 -10 5z"/>
<path d="M1766 415 c-9 -26 -7 -32 5 -12 6 10 9 21 6 23 -2 3 -7 -2 -11 -11z"/>
<path d="M1607 66 c-4 -11 -26 -16 -79 -19 l-73 -3 71 -2 c54 -2 75 2 84 13 7
9 11 18 8 21 -3 3 -8 -2 -11 -10z"/>
</g>
</svg>
